<!DOCTYPE svg PUBLIC "-//W3C//DTD SVG 20010904//EN" "http://www.w3.org/TR/2001/REC-SVG-20010904/DTD/svg10.dtd">
<svg version="1.0" xmlns="http://www.w3.org/2000/svg" width="1600px" height="528px" viewBox="0 0 16000 5280" preserveAspectRatio="xMidYMid meet">
<g id="layer101" fill="#00aaec" stroke="none">
 <path d="M2365 5154 c-274 -47 -481 -101 -643 -169 -35 -14 -71 -30 -80 -35 -9 -5 -55 -28 -102 -51 -47 -22 -94 -46 -105 -53 -202 -115 -236 -137 -357 -234 -38 -30 -68 -59 -68 -64 0 -7 33 -9 93 -6 128 8 173 26 387 158 73 45 299 147 400 180 173 56 171 56 300 83 230 50 344 60 595 54 132 -4 266 -13 315 -21 47 -8 110 -20 140 -25 30 -5 69 -14 85 -19 17 -5 50 -15 75 -23 136 -38 250 -80 347 -125 29 -13 62 -29 75 -34 29 -13 183 -99 223 -124 70 -45 140 -92 155 -103 254 -194 474 -422 614 -638 22 -33 51 -78 66 -100 32 -47 141 -264 177 -350 229 -555 247 -1207 49 -1770 -130 -370 -320 -674 -595 -953 -135 -137 -206 -198 -358 -306 -68 -48 -123 -90 -123 -94 0 -9 37 -42 47 -42 3 0 14 -7 24 -16 26 -23 83 -20 121 7 222 157 458 377 594 554 100 131 130 174 194 278 253 418 382 881 383 1377 0 316 -43 599 -129 850 -62 179 -176 432 -242 537 -40 63 -188 271 -230 323 -60 75 -299 311 -379 375 -41 33 -89 71 -107 85 -157 126 -446 278 -706 371 -128 46 -398 108 -560 128 -123 16 -576 12 -675 -5z"/>
 <path d="M10760 4971 c-50 -16 -129 -61 -175 -101 -42 -36 -51 -40 -79 -33 -17 4 -83 8 -146 7 -93 -1 -124 -5 -160 -21 -98 -45 -148 -125 -176 -285 -17 -92 -17 -102 0 -180 31 -148 86 -230 191 -286 47 -25 58 -27 180 -26 118 0 135 2 185 25 120 56 185 183 184 364 0 44 -6 105 -13 135 -15 60 -68 170 -83 170 -19 0 49 49 105 75 l57 27 0 53 c0 85 -9 94 -70 76z m-299 -275 c44 -18 93 -72 108 -115 6 -19 11 -85 11 -148 0 -123 -12 -164 -62 -211 -60 -55 -186 -55 -248 0 -56 50 -64 75 -68 202 -3 72 0 134 7 157 14 48 56 98 96 115 40 18 114 17 156 0z"/>
 <path d="M2390 4874 c-168 -23 -380 -81 -562 -153 -84 -33 -204 -92 -369 -179 -199 -107 -398 -153 -555 -131 -37 5 -70 7 -73 3 -9 -9 58 -63 104 -85 35 -16 67 -19 280 -19 372 -2 577 -14 655 -40 96 -32 210 -80 252 -107 21 -13 41 -23 46 -23 4 0 17 -8 28 -17 10 -10 46 -38 78 -63 76 -57 146 -121 146 -132 0 -4 -15 -8 -32 -8 -66 0 -246 -71 -326 -128 -16 -12 -33 -22 -37 -22 -6 0 -72 -47 -85 -60 -3 -3 -27 -23 -55 -45 -168 -132 -367 -375 -470 -570 -42 -79 -110 -242 -126 -300 -4 -16 -15 -55 -24 -85 -25 -88 -55 -307 -55 -405 0 -210 57 -454 151 -650 l34 -70 11 205 c15 278 49 407 161 621 130 250 348 478 538 564 22 10 45 21 50 24 6 2 -38 -46 -97 -108 -220 -229 -351 -483 -418 -806 -95 -451 52 -860 405 -1135 39 -30 80 -60 90 -67 80 -49 127 -74 135 -71 5 2 -21 64 -58 139 -77 155 -92 190 -121 274 -55 161 -73 322 -59 524 8 122 15 162 44 249 54 164 129 291 232 399 44 45 129 113 142 113 10 0 -6 -32 -38 -78 -46 -63 -100 -198 -126 -314 -23 -105 -26 -138 -26 -312 0 -190 7 -248 48 -416 26 -104 107 -296 185 -435 49 -89 140 -206 233 -301 160 -163 262 -240 427 -325 215 -110 355 -156 602 -200 192 -33 197 -26 44 70 -97 61 -210 140 -268 187 -96 78 -176 152 -222 206 -30 35 -60 69 -67 76 -72 77 -171 268 -205 397 -16 63 -21 111 -21 225 -1 178 12 227 152 618 22 62 46 144 53 182 16 90 6 125 -69 239 -31 47 -59 91 -62 96 -3 6 -21 33 -40 60 -65 92 -128 213 -177 335 -27 67 -35 105 -40 180 -12 192 54 322 195 386 56 26 82 30 82 14 0 -5 -9 -10 -21 -10 -50 0 -148 -116 -108 -128 21 -7 95 -88 124 -136 13 -23 38 -69 55 -103 64 -129 145 -229 215 -266 58 -30 183 -30 242 1 63 33 111 79 145 139 21 38 36 53 51 53 12 0 47 13 77 29 59 30 100 84 100 131 0 25 -1 25 -82 25 -74 1 -90 4 -142 33 -102 54 -179 142 -208 237 -15 49 -44 166 -58 230 -58 277 -200 572 -368 763 -30 34 -51 62 -46 62 5 0 52 -11 104 -24 135 -35 280 -87 390 -141 102 -51 273 -152 278 -166 2 -5 10 -9 18 -9 8 0 14 -3 14 -7 0 -5 23 -24 50 -43 27 -19 114 -100 193 -180 142 -143 244 -275 308 -398 17 -31 34 -61 38 -67 17 -24 103 -219 122 -277 52 -163 76 -271 94 -428 19 -157 18 -270 0 -435 -32 -296 -108 -524 -260 -780 -25 -42 -45 -78 -45 -81 0 -2 -28 -43 -62 -91 -35 -50 -125 -151 -207 -233 -165 -164 -153 -153 -281 -239 -141 -95 -140 -94 -210 -130 -36 -19 -69 -37 -73 -41 -5 -4 8 -23 28 -41 21 -19 43 -39 49 -44 17 -16 155 -117 210 -155 l49 -33 46 24 c25 13 69 39 96 59 28 19 58 40 66 45 87 55 273 220 367 324 42 47 85 95 95 106 28 31 127 163 140 188 7 12 34 55 60 94 117 181 251 510 287 703 6 36 16 87 21 115 17 88 39 325 39 421 0 126 -17 334 -34 414 -8 36 -22 102 -31 148 -27 132 -79 284 -149 435 -20 43 -36 83 -36 88 0 5 -4 9 -10 9 -5 0 -10 5 -10 11 0 17 -105 193 -178 297 -127 185 -334 392 -542 543 -127 93 -185 128 -330 200 -260 130 -456 189 -797 238 -97 15 -485 11 -603 -5z"/>
 <path d="M9145 4841 c-117 -31 -188 -105 -224 -236 -17 -61 -14 -264 4 -316 39 -110 93 -176 182 -220 43 -22 61 -24 183 -23 156 0 186 9 253 77 73 72 107 171 107 306 0 152 -38 260 -115 329 -77 69 -121 84 -248 88 -62 2 -125 0 -142 -5z m208 -145 c44 -18 94 -78 104 -123 14 -67 7 -254 -11 -295 -41 -94 -216 -128 -291 -58 -50 47 -68 106 -68 225 0 115 15 172 59 221 38 42 143 57 207 30z"/>
 <path d="M11089 4837 c-68 -26 -111 -60 -147 -116 l-36 -56 0 -305 -1 -305 69 -3 c41 -2 74 2 80 8 7 7 13 104 16 278 5 245 7 270 26 302 39 68 134 89 209 47 61 -35 66 -60 72 -364 l6 -263 84 0 84 0 -3 288 -3 287 -29 57 c-31 63 -80 112 -135 135 -50 21 -245 28 -292 10z"/>
 <path d="M15218 4835 c-62 -20 -88 -54 -88 -115 0 -67 13 -73 85 -43 79 33 161 41 203 19 41 -21 67 -69 52 -96 -13 -24 -75 -66 -164 -111 -142 -70 -189 -160 -155 -294 14 -56 50 -95 119 -130 51 -26 60 -27 156 -23 77 4 110 9 135 24 32 19 34 23 37 82 4 78 -5 83 -92 48 -35 -14 -78 -26 -94 -26 -41 0 -96 40 -100 72 -4 35 48 86 114 112 84 33 167 92 192 135 18 32 22 56 22 118 0 68 -3 83 -28 119 -30 47 -73 84 -116 103 -47 20 -222 24 -278 6z"/>
 <path d="M6046 4824 c-3 -9 -6 -186 -6 -395 l0 -380 78 3 77 3 3 153 3 152 144 0 144 0 3 -152 3 -153 78 -3 77 -3 0 380 c0 209 -3 386 -6 395 -5 12 -21 16 -74 16 -53 0 -69 -4 -74 -16 -3 -9 -6 -85 -6 -170 l0 -154 -145 0 -145 0 0 170 0 170 -74 0 c-58 0 -75 -3 -80 -16z"/>
 <path d="M6755 4830 c-9 -14 2 -59 42 -175 19 -55 42 -125 53 -155 35 -105 128 -365 145 -407 l17 -43 99 0 c111 0 105 -5 139 97 10 32 30 90 44 128 121 337 176 506 176 542 0 22 -4 23 -80 23 -91 0 -80 10 -121 -108 l-22 -63 -145 3 -146 3 -17 58 c-29 98 -39 107 -114 107 -35 0 -67 -5 -70 -10z m445 -309 c0 -10 -62 -198 -82 -248 -14 -37 -28 -43 -28 -12 0 11 -6 33 -14 47 -8 15 -21 50 -29 77 -9 28 -21 64 -28 81 -22 56 -11 64 91 64 49 0 90 -4 90 -9z"/>
 <path d="M7527 4822 c-40 -44 -22 -91 109 -302 47 -74 90 -144 97 -155 7 -11 21 -33 33 -50 11 -16 32 -51 47 -76 l26 -46 -146 -5 c-162 -6 -173 -11 -173 -72 0 -61 -2 -61 249 -64 153 -2 237 1 251 8 17 9 20 21 20 69 0 46 -5 66 -29 102 -63 98 -101 160 -101 166 0 4 -9 16 -19 27 -10 12 -27 37 -37 56 -11 19 -27 46 -37 60 -10 14 -35 53 -56 86 l-39 62 30 6 c17 3 88 6 159 6 143 0 149 3 149 74 0 70 15 66 -265 66 -231 0 -253 -1 -268 -18z"/>
 <path d="M8451 4813 c-8 -20 -11 -138 -9 -393 l3 -365 68 -3 c42 -2 74 2 83 9 11 9 14 67 14 325 l0 314 129 0 c141 0 141 0 141 63 0 18 -3 42 -6 55 -6 22 -7 22 -209 22 l-203 0 -11 -27z"/>
 <path d="M11726 4824 c-14 -13 -16 -62 -16 -379 0 -317 2 -366 16 -379 13 -13 46 -16 209 -16 107 0 205 4 219 10 23 8 26 15 26 59 0 37 -4 51 -17 56 -10 4 -78 9 -150 12 l-133 6 0 83 0 84 103 1 c142 1 151 5 155 58 5 67 -3 71 -139 71 l-119 0 0 105 0 105 138 0 c94 0 142 4 150 12 7 7 12 33 12 58 0 25 -5 51 -12 58 -9 9 -71 12 -219 12 -175 0 -210 -2 -223 -16z"/>
 <path d="M12530 4810 c0 -29 39 -152 141 -440 28 -80 65 -184 81 -232 l30 -88 103 0 103 0 17 43 c21 50 150 423 207 594 23 67 38 129 35 137 -5 13 -23 16 -86 16 l-80 0 -27 -85 -26 -85 -147 0 -146 0 -24 73 c-13 39 -28 78 -34 85 -6 7 -35 12 -78 12 l-69 0 0 -30z m450 -287 c0 -21 -97 -283 -104 -283 -3 0 -14 28 -25 63 -11 34 -29 87 -39 117 -10 30 -22 67 -26 83 l-6 27 100 0 c55 0 100 -3 100 -7z"/>
 <path d="M13357 4833 c-4 -3 -7 -172 -7 -375 0 -441 -11 -408 131 -408 86 0 92 2 118 28 17 17 47 81 85 182 95 252 118 310 125 310 8 0 82 -188 138 -350 35 -101 63 -148 95 -159 49 -17 183 -14 202 5 14 13 16 63 16 395 l0 380 -72 -3 -73 -3 -5 -313 -5 -313 -53 148 c-29 81 -71 198 -93 258 -22 61 -47 130 -55 155 -9 25 -21 51 -26 58 -14 16 -128 15 -149 -1 -10 -7 -24 -35 -32 -62 -9 -28 -39 -115 -67 -195 -28 -80 -62 -178 -75 -218 -14 -40 -28 -80 -33 -88 -14 -25 -22 95 -22 333 0 116 -3 218 -6 227 -5 12 -21 16 -68 16 -35 0 -66 -3 -69 -7z"/>
 <path d="M14360 4807 c0 -18 25 -105 56 -193 31 -87 67 -190 80 -229 13 -38 37 -108 54 -155 18 -47 38 -106 46 -132 l15 -48 103 0 104 0 17 43 c10 23 21 53 25 67 5 14 38 111 75 215 111 318 148 434 141 450 -4 12 -23 15 -85 15 l-79 0 -22 -62 c-12 -35 -24 -73 -27 -85 -5 -23 -8 -23 -152 -23 l-146 0 -24 73 c-13 39 -28 78 -34 85 -6 7 -35 12 -78 12 l-69 0 0 -33z m450 -283 c0 -13 -74 -222 -90 -253 l-17 -34 -46 137 c-26 75 -47 141 -47 146 0 6 42 10 100 10 55 0 100 -3 100 -6z"/>
 <path d="M380 4402 c0 -71 51 -203 108 -282 55 -75 208 -200 245 -200 8 0 20 -6 26 -14 8 -10 4 -22 -18 -53 -16 -22 -36 -53 -45 -69 -9 -16 -26 -44 -36 -62 -92 -154 -143 -263 -210 -457 -92 -263 -144 -654 -121 -901 31 -328 64 -477 164 -746 28 -73 124 -272 159 -328 130 -209 209 -313 347 -455 126 -130 179 -175 354 -304 144 -106 504 -281 661 -322 320 -82 471 -102 747 -97 259 4 272 8 180 65 -105 64 -287 186 -327 219 -51 42 -122 95 -156 117 -16 10 -67 24 -115 33 -119 20 -253 59 -353 101 -94 40 -261 124 -309 157 -29 20 -55 36 -57 36 -8 0 -111 76 -169 125 -59 49 -234 222 -266 262 -240 300 -368 582 -441 973 -17 92 -16 524 1 615 42 218 125 462 205 603 20 35 36 66 36 68 0 21 186 281 240 335 45 46 68 58 215 107 183 62 328 73 578 46 31 -4 57 -3 57 1 0 8 -42 44 -53 45 -4 0 -24 11 -45 24 -43 27 -162 70 -242 86 -55 12 -121 11 -628 -6 -121 -4 -203 -2 -241 5 -57 11 -156 50 -220 87 -47 26 -168 124 -216 173 -21 23 -43 41 -47 41 -4 0 -8 -13 -8 -28z"/>
 <path d="M7125 3683 c-463 -30 -759 -201 -944 -544 -22 -42 -41 -85 -41 -96 0 -10 -5 -24 -11 -30 -6 -6 -22 -60 -36 -120 l-24 -108 -6 -1164 -6 -1164 194 6 c172 6 258 16 349 43 39 11 122 67 155 105 45 50 77 125 86 204 4 39 8 189 9 335 0 146 3 281 6 300 l6 35 90 -88 c149 -143 264 -187 489 -187 244 0 420 46 604 159 102 62 229 183 289 276 22 33 48 72 58 87 10 15 18 32 18 38 0 6 9 28 19 49 67 130 103 317 109 556 4 217 -12 339 -68 505 -66 196 -145 323 -282 456 -163 158 -320 246 -538 300 -129 32 -392 56 -525 47z m315 -650 c72 -23 176 -123 213 -205 51 -110 60 -169 60 -354 -1 -184 -10 -251 -49 -356 -41 -110 -106 -187 -194 -230 -64 -31 -216 -37 -292 -13 -109 37 -188 110 -244 230 -53 111 -74 209 -74 351 0 236 50 400 151 495 104 99 278 132 429 82z"/>
 <path d="M11400 3675 c-266 -40 -463 -126 -601 -264 -143 -143 -202 -249 -261 -471 l-31 -115 -4 -777 -5 -778 179 0 c399 1 528 47 608 216 37 77 42 158 50 769 6 525 7 531 60 616 39 60 74 93 132 123 48 24 63 26 173 26 112 0 123 -2 162 -26 50 -32 82 -66 115 -121 57 -97 56 -87 60 -875 l4 -728 167 0 c262 0 397 21 483 76 78 49 121 107 156 213 20 59 29 671 15 1066 -8 231 -12 278 -30 325 -11 30 -23 69 -27 85 -10 45 -69 159 -119 228 -165 232 -406 362 -760 412 -123 18 -407 17 -526 0z"/>
 <path d="M14205 3675 c-71 -12 -145 -29 -240 -55 -33 -9 -82 -29 -163 -67 -67 -31 -196 -127 -241 -179 -52 -58 -149 -212 -167 -264 -9 -25 -20 -54 -24 -65 -15 -38 -21 -59 -42 -160 -20 -95 -21 -135 -25 -857 l-5 -758 179 0 c266 0 412 22 488 73 57 38 111 105 134 163 22 58 23 71 32 624 5 311 13 586 19 611 23 113 92 209 182 255 42 21 60 24 169 24 131 0 150 -6 217 -64 39 -36 67 -78 95 -149 19 -49 21 -79 28 -572 4 -286 7 -620 8 -742 l1 -223 174 0 c381 0 516 51 598 226 52 111 57 174 58 656 0 577 -10 704 -70 873 -86 241 -236 414 -460 530 -30 15 -66 31 -80 36 -14 4 -44 15 -68 23 -61 23 -211 53 -324 65 -127 14 -373 12 -473 -4z"/>
 <path d="M9506 3630 c-251 -64 -448 -243 -521 -475 -47 -149 -45 -79 -45 -1427 l0 -1270 213 5 c230 6 289 15 383 63 94 48 179 162 206 279 5 22 13 475 17 1025 l7 985 23 40 c34 60 58 81 114 106 45 19 75 23 219 27 l167 5 -5 126 c-8 216 -12 259 -32 303 -29 64 -83 121 -149 155 -110 59 -134 64 -333 69 -162 3 -195 1 -264 -16z"/>
 </g>

</svg>