<!DOCTYPE svg PUBLIC "-//W3C//DTD SVG 20010904//EN" "http://www.w3.org/TR/2001/REC-SVG-20010904/DTD/svg10.dtd">
<svg version="1.0" xmlns="http://www.w3.org/2000/svg" width="1116px" height="1090px" viewBox="0 0 11160 10900" preserveAspectRatio="xMidYMid meet">
<g id="layer101" fill="#00a8e9" stroke="none">
 <path d="M1845 10244 c-167 -18 -379 -75 -430 -116 -52 -41 -69 -120 -39 -181 9 -18 184 -201 389 -407 l373 -375 -76 -177 c-43 -98 -82 -182 -87 -187 -6 -6 -87 -42 -180 -80 l-170 -70 -385 384 c-416 415 -407 407 -497 390 -60 -11 -96 -57 -132 -168 -49 -154 -65 -261 -64 -442 1 -245 49 -443 159 -655 166 -319 461 -571 800 -686 266 -89 599 -97 859 -20 l80 23 1316 -1315 1317 -1315 -46 -76 c-99 -166 -204 -414 -262 -618 l-20 -71 -143 -4 c-118 -3 -152 -8 -200 -27 -81 -32 -168 -114 -209 -199 l-33 -67 0 -330 0 -330 32 -67 c80 -169 214 -237 466 -238 61 0 89 -4 91 -12 54 -191 119 -361 198 -518 l90 -182 -91 -93 c-132 -134 -173 -241 -150 -388 19 -120 42 -153 262 -374 179 -181 210 -208 276 -241 71 -35 80 -37 175 -37 93 0 106 3 170 33 51 24 92 55 161 122 l91 90 100 -55 c156 -87 410 -188 560 -224 l52 -12 4 -147 c3 -140 5 -150 35 -214 56 -119 165 -204 292 -228 72 -13 522 -13 597 1 123 22 239 112 291 225 29 63 42 150 43 275 l0 86 98 28 c142 40 308 107 469 190 l141 72 59 -59 c173 -179 331 -226 518 -158 55 21 79 41 286 249 208 207 228 231 249 286 68 187 21 345 -158 518 l-59 59 72 141 c85 165 151 330 191 474 l28 102 151 3 c138 3 154 5 207 30 115 54 204 169 227 292 14 75 14 525 1 597 -24 127 -109 236 -228 292 -64 30 -74 32 -214 35 l-147 4 -12 52 c-36 150 -137 404 -224 560 l-55 100 90 91 c67 69 98 110 122 161 30 64 33 77 33 170 0 95 -2 104 -37 175 -33 66 -60 97 -241 276 -222 221 -259 246 -377 263 -147 21 -253 -21 -385 -151 l-93 -91 -181 90 c-154 76 -365 157 -518 198 -9 2 -13 30 -13 91 -1 251 -64 379 -228 460 l-76 38 -331 0 -330 0 -67 -33 c-85 -41 -167 -128 -199 -209 -19 -48 -24 -82 -27 -200 l-4 -143 -71 -20 c-154 -44 -319 -108 -467 -182 l-155 -78 -890 890 c-790 789 -894 889 -928 895 -118 22 -204 -64 -182 -182 6 -34 153 -185 1373 -1406 752 -753 1379 -1375 1394 -1383 41 -22 96 -17 188 17 231 84 458 95 688 34 421 -112 734 -451 819 -884 16 -86 23 -344 9 -358 -4 -4 -152 137 -329 314 -177 176 -332 326 -344 332 -53 27 -96 14 -390 -114 -208 -89 -294 -131 -308 -150 -11 -14 -70 -148 -132 -296 -115 -276 -127 -322 -102 -372 6 -12 156 -167 332 -344 177 -177 318 -325 314 -329 -14 -14 -272 -7 -358 9 -365 72 -657 297 -815 631 -75 159 -105 298 -105 485 0 136 20 251 63 364 35 94 45 166 29 205 -7 15 -845 861 -1864 1879 -1669 1668 -1856 1853 -1894 1863 -39 10 -53 7 -160 -30 -147 -51 -255 -70 -393 -70 -301 0 -586 118 -792 327 -86 87 -127 139 -180 228 -110 184 -169 431 -153 641 l7 97 327 -326 c179 -179 339 -331 354 -337 16 -5 40 -10 54 -10 43 0 588 229 616 258 29 33 267 587 267 624 0 15 -5 39 -10 55 -6 15 -158 175 -337 354 l-326 327 96 7 c109 8 244 -5 357 -34 496 -131 840 -577 840 -1091 0 -138 -19 -246 -70 -393 -60 -174 -79 -141 278 -500 163 -164 309 -305 324 -313 15 -8 47 -14 71 -14 107 0 178 116 132 214 -8 17 -127 143 -264 280 l-248 248 23 81 c77 264 69 595 -20 861 -114 339 -368 635 -685 800 -125 65 -256 110 -393 137 -97 19 -314 31 -393 23z m5714 -3990 c42 -30 51 -71 51 -244 0 -112 4 -170 14 -193 20 -49 78 -94 144 -112 303 -83 459 -145 668 -265 125 -72 144 -80 192 -80 29 0 69 7 89 15 21 9 90 68 157 134 67 65 131 122 143 125 42 13 89 -23 266 -201 228 -231 225 -206 49 -387 -108 -110 -130 -139 -141 -178 -20 -70 -7 -120 53 -223 119 -200 198 -383 253 -590 45 -170 49 -179 93 -219 54 -48 92 -56 276 -56 242 0 236 8 232 -343 l-3 -247 -33 -32 -32 -33 -188 -5 c-260 -7 -278 -19 -331 -220 -58 -223 -143 -432 -246 -605 -68 -114 -83 -148 -84 -190 -2 -74 18 -106 144 -235 125 -127 143 -156 130 -207 -9 -38 -350 -379 -387 -388 -52 -13 -81 5 -208 130 -129 126 -161 146 -235 144 -42 -1 -76 -16 -190 -84 -173 -103 -382 -188 -605 -246 -201 -53 -213 -71 -220 -331 l-5 -188 -33 -32 -32 -33 -247 -3 c-264 -3 -287 0 -323 46 -18 22 -20 41 -20 196 0 144 -3 177 -19 211 -24 53 -80 101 -133 115 -310 79 -481 148 -713 286 -103 60 -153 73 -223 53 -39 -11 -68 -33 -178 -141 -181 -176 -156 -179 -387 50 -99 97 -185 191 -193 209 -21 49 -6 75 121 204 123 124 145 160 145 239 0 55 -7 72 -81 196 -101 168 -188 380 -243 595 -29 111 -39 136 -68 166 -54 57 -78 63 -258 63 -173 0 -214 9 -244 51 -14 20 -16 59 -16 277 0 266 5 298 47 318 10 5 99 11 198 14 150 4 186 8 219 24 57 29 90 82 116 188 38 153 97 315 170 463 38 77 73 147 79 155 9 12 34 -8 140 -114 l130 -129 -24 -48 c-147 -289 -222 -677 -195 -1008 33 -408 181 -782 430 -1086 77 -94 247 -258 341 -328 692 -520 1655 -515 2346 11 343 261 596 643 703 1059 65 255 57 344 -34 387 -42 20 -98 21 -134 2 -56 -29 -71 -57 -93 -172 -64 -343 -205 -623 -437 -865 -136 -143 -276 -246 -463 -339 -347 -175 -767 -217 -1144 -115 -458 124 -838 437 -1050 863 -208 420 -227 884 -54 1334 l31 80 93 -92 93 -93 -18 -52 c-43 -126 -55 -213 -55 -420 0 -219 11 -293 66 -458 74 -222 177 -387 348 -557 127 -126 223 -196 376 -270 331 -162 713 -188 1073 -74 95 31 135 62 153 122 20 69 1 112 -92 207 l-79 81 165 49 c91 26 179 57 196 67 38 23 55 62 110 250 l43 148 81 -79 c95 -93 138 -112 207 -92 60 18 91 58 122 153 92 289 92 616 -1 898 -33 101 -110 257 -175 355 -29 44 -104 132 -168 196 -170 171 -335 274 -557 348 -165 55 -239 66 -458 66 -207 0 -294 -12 -420 -55 l-52 -18 -79 79 c-43 43 -76 80 -73 82 11 10 173 59 254 77 648 142 1333 -137 1707 -694 107 -161 180 -323 229 -515 17 -64 37 -126 45 -139 53 -80 186 -83 242 -4 33 46 36 89 11 193 -111 476 -404 896 -819 1174 -119 79 -323 178 -466 224 -436 143 -924 126 -1345 -47 l-97 -39 -131 131 -132 132 108 52 c130 62 258 111 373 141 47 13 109 30 138 37 64 18 122 72 140 130 7 25 12 105 12 200 1 113 5 166 14 183 26 47 44 50 316 51 220 0 259 -2 279 -16z m275 -2783 l178 -179 -59 -198 -59 -198 -198 -59 -198 -60 -180 180 -180 180 73 171 73 170 180 85 c100 47 183 86 186 86 3 1 86 -79 184 -178z"/>
 <path d="M7530 3328 c-50 -26 -90 -89 -90 -143 0 -41 38 -114 73 -139 40 -30 144 -30 183 0 45 33 67 70 71 121 13 134 -118 223 -237 161z"/>
 <path d="M7068 9798 c-47 -12 -111 -67 -134 -115 -10 -21 -20 -69 -23 -106 l-6 -69 -59 -24 -60 -24 -40 39 c-23 21 -57 47 -76 57 -50 25 -144 23 -195 -4 -47 -24 -326 -303 -348 -347 -45 -89 -29 -183 44 -261 l49 -51 -24 -59 -24 -59 -70 -6 c-85 -8 -133 -30 -177 -82 -50 -58 -57 -108 -53 -352 3 -209 3 -210 31 -258 43 -73 94 -101 188 -106 l77 -3 26 -61 26 -61 -39 -41 c-72 -74 -93 -149 -67 -237 14 -48 31 -69 178 -215 101 -100 177 -168 200 -178 82 -34 187 -9 260 62 l37 36 59 -22 59 -22 5 -74 c6 -89 39 -152 100 -193 l41 -27 241 -3 c272 -3 301 2 357 65 44 51 59 92 59 165 l0 63 64 26 65 26 38 -40 c75 -78 173 -98 268 -53 66 31 325 292 354 356 40 88 23 179 -48 253 l-48 50 26 63 26 64 65 0 c78 1 134 23 174 71 53 62 56 80 56 327 0 224 0 229 -25 279 -41 81 -116 122 -226 123 -45 0 -45 0 -67 53 -12 29 -22 56 -22 61 0 5 16 27 36 48 68 75 88 152 63 243 -9 32 -43 72 -167 198 -87 87 -175 168 -197 180 -51 26 -145 28 -195 3 -19 -10 -53 -36 -75 -57 l-40 -39 -60 25 -60 24 -6 73 c-8 116 -58 185 -153 213 -58 17 -426 20 -488 3z m342 -358 c0 -123 30 -163 153 -200 39 -12 118 -44 175 -72 92 -45 107 -50 147 -43 36 5 57 17 103 60 l59 54 68 -69 69 -70 -46 -47 c-58 -60 -68 -81 -68 -137 0 -33 10 -63 39 -118 22 -40 54 -116 71 -168 45 -138 72 -160 195 -160 l75 0 0 -100 0 -100 -67 0 c-79 0 -146 -28 -167 -69 -8 -14 -28 -68 -45 -120 -17 -51 -47 -122 -66 -156 -27 -47 -35 -74 -35 -111 0 -55 11 -76 74 -142 l40 -42 -69 -70 -69 -70 -58 57 c-52 52 -61 57 -110 61 -48 4 -62 -1 -139 -40 -47 -24 -119 -55 -160 -67 -41 -13 -86 -30 -100 -37 -41 -21 -69 -88 -69 -167 l0 -67 -100 0 -100 0 0 70 c0 124 -29 160 -159 199 -41 13 -114 43 -163 67 -91 46 -147 55 -191 33 -12 -6 -45 -33 -72 -60 l-51 -49 -68 69 -69 70 55 60 c83 89 85 128 17 256 -20 38 -49 108 -64 155 -14 47 -33 96 -41 108 -24 37 -90 62 -166 62 l-68 0 0 99 0 99 89 4 c86 3 91 4 124 36 25 24 40 52 52 95 9 34 41 115 72 179 70 149 68 173 -15 260 l-56 59 69 69 69 70 46 -45 c46 -45 102 -75 142 -75 12 0 74 24 137 54 64 30 142 61 175 70 101 26 136 75 136 191 l0 75 100 0 100 0 0 -70z"/>
 <path d="M7229 9068 c-161 -15 -293 -80 -419 -207 -97 -98 -147 -183 -179 -301 -28 -106 -34 -187 -21 -282 47 -344 317 -596 660 -615 130 -8 237 14 360 74 79 38 108 59 180 132 94 95 142 173 182 301 30 97 32 279 5 380 -66 244 -258 435 -499 499 -87 23 -166 29 -269 19z m218 -318 c199 -69 311 -280 258 -484 -21 -79 -56 -135 -125 -200 -83 -76 -147 -100 -270 -101 -86 0 -101 3 -162 32 -130 61 -215 172 -239 311 -29 165 70 351 227 424 109 51 201 56 311 18z"/>
 <path d="M1995 5011 c-83 -38 -125 -111 -125 -213 l0 -63 -64 -26 -65 -26 -42 43 c-57 58 -111 78 -189 71 -34 -3 -74 -14 -92 -25 -18 -11 -101 -90 -184 -174 -118 -121 -153 -162 -162 -194 -28 -96 -6 -179 65 -247 l40 -38 -26 -65 -26 -64 -65 0 c-74 0 -131 -22 -172 -66 -53 -57 -58 -83 -58 -333 l0 -229 28 -53 c39 -75 95 -108 194 -116 l75 -6 22 -51 c27 -66 27 -67 -10 -102 -70 -65 -97 -180 -64 -262 20 -47 304 -335 360 -364 51 -27 146 -29 194 -4 18 10 52 35 75 56 l42 39 60 -24 59 -24 5 -74 c8 -99 43 -160 115 -196 49 -26 52 -26 285 -26 223 0 237 1 276 22 45 24 90 72 106 112 5 14 13 57 16 94 l7 69 59 25 59 24 41 -39 c59 -57 101 -75 172 -76 48 0 70 6 105 26 52 31 320 300 341 343 44 88 29 181 -43 259 l-49 53 24 59 24 59 70 6 c85 8 133 30 177 82 50 58 57 108 53 352 -3 209 -3 210 -31 258 -43 73 -94 101 -188 106 l-77 3 -26 60 -26 61 39 42 c73 79 93 149 67 237 -14 48 -31 69 -178 215 -101 100 -177 168 -200 178 -81 33 -175 13 -249 -53 l-49 -44 -59 22 -58 21 -5 74 c-6 89 -39 152 -100 193 l-41 27 -246 3 c-223 2 -250 0 -286 -17z m375 -356 c0 -121 28 -155 160 -195 41 -12 114 -42 161 -66 61 -32 98 -44 128 -44 54 0 74 11 136 71 l51 49 69 -70 69 -69 -56 -59 c-46 -48 -58 -67 -63 -105 -7 -43 -3 -56 43 -149 28 -57 60 -134 72 -173 11 -38 28 -80 36 -93 25 -37 90 -62 167 -62 l67 0 0 -99 0 -99 -89 -4 c-86 -3 -91 -4 -124 -36 -25 -24 -40 -53 -56 -106 -11 -41 -41 -113 -65 -162 -24 -49 -47 -100 -51 -112 -14 -47 4 -93 63 -154 l56 -59 -69 -69 -69 -69 -51 48 c-56 53 -111 76 -157 67 -17 -3 -71 -26 -120 -51 -50 -25 -116 -52 -147 -60 -131 -36 -155 -64 -159 -187 l-4 -88 -99 0 -99 0 0 63 c0 79 -14 128 -44 156 -13 12 -69 38 -125 57 -57 19 -136 52 -178 74 -110 59 -153 53 -238 -31 l-51 -49 -69 70 -69 70 46 47 c57 60 68 81 68 134 0 30 -12 67 -44 128 -24 47 -56 125 -70 172 -38 123 -71 149 -190 149 l-76 0 0 100 0 100 64 0 c120 0 163 33 201 154 14 45 46 121 70 169 66 129 62 179 -22 268 l-47 50 70 70 69 70 49 -52 c84 -86 132 -91 259 -25 47 25 123 56 169 70 126 39 158 80 158 201 l0 65 100 0 100 0 0 -75z"/>
 <path d="M2115 4285 c-38 -9 -113 -36 -165 -62 -79 -39 -109 -61 -181 -132 -71 -72 -93 -102 -132 -181 -200 -410 11 -881 449 -1001 112 -31 306 -24 412 14 110 38 178 83 272 177 140 139 202 292 202 495 1 124 -18 202 -78 323 -80 163 -229 290 -409 348 -102 33 -265 41 -370 19z m329 -328 c254 -126 309 -451 109 -650 -201 -201 -533 -141 -656 120 -29 62 -32 77 -32 163 1 123 25 187 102 270 96 104 185 142 320 137 70 -3 92 -8 157 -40z"/>
 </g>

</svg>