<!DOCTYPE svg PUBLIC "-//W3C//DTD SVG 20010904//EN" "http://www.w3.org/TR/2001/REC-SVG-20010904/DTD/svg10.dtd">
<svg version="1.0" xmlns="http://www.w3.org/2000/svg" width="1600px" height="528px" viewBox="0 0 16000 5280" preserveAspectRatio="xMidYMid meet">
<g id="layer101" fill="#ffffff" stroke="none">
 <path d="M2439 5159 c-205 -20 -558 -106 -694 -169 -11 -5 -48 -21 -83 -35 -149 -61 -439 -228 -539 -311 -13 -11 -43 -35 -68 -54 -25 -19 -45 -39 -45 -44 0 -5 43 -6 97 -3 114 6 168 25 275 94 40 26 98 60 128 76 30 16 66 35 80 43 224 122 574 224 879 255 122 13 514 6 606 -10 231 -40 247 -44 455 -112 136 -45 170 -59 305 -126 243 -121 434 -255 616 -430 141 -136 162 -158 243 -263 36 -47 69 -89 74 -95 12 -15 116 -175 140 -215 19 -33 115 -223 133 -265 44 -104 59 -147 119 -340 8 -27 25 -103 51 -235 13 -69 39 -347 39 -424 0 -72 -25 -335 -40 -421 -61 -352 -205 -707 -403 -995 -126 -183 -325 -402 -482 -528 -38 -31 -72 -59 -75 -62 -7 -7 -50 -37 -142 -99 -43 -29 -78 -56 -78 -60 0 -12 59 -55 96 -70 27 -11 37 -10 65 4 17 10 37 21 43 26 6 5 43 33 83 63 101 74 170 135 292 256 123 122 148 151 246 280 108 143 177 253 243 385 118 236 194 453 241 685 29 141 30 149 46 353 13 167 13 210 -1 375 -14 186 -20 228 -49 372 -43 221 -138 477 -274 738 -53 101 -216 335 -312 446 -95 111 -290 295 -404 380 -33 25 -65 50 -71 55 -5 4 -21 14 -35 21 -13 7 -26 16 -29 19 -5 7 -110 73 -170 109 -77 44 -263 133 -310 147 -14 4 -29 11 -35 15 -5 4 -28 13 -50 19 -22 7 -49 16 -60 21 -58 25 -252 74 -440 111 -141 27 -509 37 -706 18z"/>
 <path d="M10768 4969 c-43 -10 -147 -66 -173 -93 -52 -54 -58 -56 -105 -40 -63 22 -217 14 -282 -14 -108 -48 -160 -127 -183 -281 -13 -87 -13 -108 0 -187 25 -143 79 -224 190 -283 47 -24 59 -26 180 -26 115 0 136 3 180 23 104 49 157 128 181 271 13 72 14 99 3 166 -14 92 -39 163 -74 209 l-24 32 21 15 c11 7 26 20 34 27 7 6 15 12 18 12 4 0 27 10 52 21 l45 22 -3 65 c-2 36 -7 66 -13 68 -5 1 -26 -2 -47 -7z m-309 -269 c40 -11 84 -55 108 -107 13 -29 17 -66 17 -158 1 -104 -2 -125 -21 -160 -33 -61 -63 -84 -125 -95 -104 -17 -177 16 -219 98 -21 42 -24 60 -24 167 0 103 3 127 22 166 21 45 56 77 98 91 31 10 107 9 144 -2z"/>
 <path d="M2480 4880 c-100 -10 -282 -40 -299 -50 -9 -4 -36 -11 -60 -15 -40 -7 -234 -72 -326 -110 -56 -23 -272 -131 -320 -160 -97 -58 -208 -102 -328 -130 -78 -17 -242 -20 -283 -5 -71 27 -15 -40 66 -79 l55 -26 380 0 c360 0 384 -1 460 -22 95 -27 273 -96 285 -112 3 -3 19 -13 35 -21 17 -8 35 -18 40 -22 6 -5 39 -29 75 -55 36 -27 89 -71 119 -99 l54 -51 -47 -6 c-285 -39 -667 -338 -897 -702 -73 -116 -86 -139 -136 -255 -191 -438 -188 -910 10 -1310 l32 -65 5 190 c6 197 16 260 67 415 26 81 42 120 78 191 40 78 91 166 105 179 3 3 19 26 37 51 104 149 260 288 403 359 36 18 73 36 83 41 10 5 -29 -37 -86 -93 -110 -109 -188 -209 -254 -323 -48 -82 -105 -203 -123 -260 -7 -22 -16 -44 -20 -50 -11 -16 -48 -171 -65 -273 -28 -169 -13 -366 40 -537 79 -256 280 -490 549 -640 25 -14 50 -25 56 -25 7 0 -5 30 -26 68 -60 105 -92 171 -105 210 -6 21 -15 42 -19 47 -4 6 -13 28 -19 50 -7 22 -17 49 -22 60 -10 23 -34 129 -50 224 -17 101 -6 360 19 456 54 200 153 377 279 496 52 49 131 105 138 98 2 -3 -14 -32 -36 -64 -61 -90 -113 -205 -136 -305 -32 -139 -35 -171 -36 -340 0 -169 4 -210 38 -369 43 -194 171 -471 297 -636 87 -115 225 -252 338 -336 36 -27 70 -52 75 -57 49 -38 311 -169 375 -186 14 -4 34 -11 45 -16 21 -10 99 -32 200 -56 87 -21 245 -45 274 -42 22 3 16 9 -49 48 -41 24 -79 48 -85 53 -5 4 -32 22 -60 40 -27 17 -54 35 -60 39 -5 5 -28 22 -50 38 -22 16 -44 33 -50 38 -5 4 -30 23 -55 42 -56 44 -185 171 -230 229 -19 24 -40 48 -45 55 -35 38 -77 113 -157 279 -4 9 -17 56 -29 105 -23 100 -28 292 -8 376 28 121 65 247 94 321 119 298 134 389 79 480 -35 57 -159 244 -174 262 -6 7 -10 15 -10 19 0 3 -8 18 -19 32 -29 41 -98 176 -111 219 -7 21 -16 43 -20 48 -11 16 -28 95 -36 165 -17 173 70 340 202 390 60 22 80 25 88 11 3 -5 -9 -12 -28 -15 -60 -11 -153 -126 -102 -126 7 0 32 -21 55 -47 50 -56 51 -59 71 -98 8 -16 21 -36 28 -43 6 -7 12 -18 12 -23 0 -6 21 -47 47 -92 98 -169 174 -227 299 -227 115 0 223 72 271 181 13 31 22 39 43 39 32 0 117 43 142 72 17 20 38 78 38 107 0 9 -7 11 -22 6 -53 -16 -82 -16 -136 0 -86 28 -129 55 -201 126 -57 58 -79 117 -135 369 -26 115 -36 155 -45 175 -6 11 -15 38 -21 60 -17 57 -94 224 -148 320 -24 43 -104 154 -137 190 -15 17 -39 43 -54 59 l-26 28 30 -5 c122 -22 294 -75 405 -124 100 -44 233 -114 238 -125 2 -5 8 -8 13 -8 13 0 127 -79 214 -149 69 -55 226 -207 275 -266 109 -132 191 -259 266 -415 68 -140 67 -137 98 -230 75 -229 105 -410 105 -645 0 -169 -28 -389 -65 -509 -67 -214 -71 -225 -149 -381 -65 -128 -167 -289 -237 -370 -59 -69 -224 -234 -277 -275 -24 -19 -48 -40 -55 -46 -9 -9 -153 -105 -211 -141 -11 -7 -51 -29 -90 -49 -38 -20 -71 -37 -73 -39 -5 -4 38 -46 89 -85 24 -19 49 -38 54 -43 42 -34 191 -137 198 -137 17 0 146 79 175 107 7 7 17 13 21 13 4 0 17 8 28 17 11 10 35 29 54 43 132 99 275 239 396 385 86 105 76 91 134 180 86 132 134 215 165 285 9 19 29 62 45 96 16 33 29 64 29 68 0 5 6 22 14 39 8 18 19 50 26 72 6 22 16 49 21 60 34 74 87 377 99 557 10 163 0 427 -20 523 -6 27 -17 84 -25 125 -19 99 -43 200 -55 225 -5 11 -14 38 -20 60 -7 22 -18 54 -26 72 -8 17 -14 33 -14 36 0 3 -18 44 -40 91 -22 47 -40 90 -40 96 0 5 -4 10 -10 10 -5 0 -10 6 -10 13 0 15 -135 243 -156 264 -8 8 -14 18 -14 23 0 5 -6 15 -13 22 -7 7 -18 20 -23 30 -19 34 -151 182 -259 291 -53 53 -212 185 -275 227 -12 8 -31 23 -42 33 -12 9 -25 17 -29 17 -4 0 -14 6 -21 13 -7 7 -49 33 -93 58 -319 179 -606 270 -970 309 -92 10 -369 10 -465 0z"/>
 <path d="M9160 4841 c-150 -33 -231 -134 -249 -311 -24 -224 42 -384 187 -456 54 -28 63 -29 192 -29 127 0 138 2 185 27 115 61 175 184 175 360 0 83 -33 238 -51 238 -5 0 -9 7 -9 15 0 27 -89 105 -148 132 -45 21 -76 26 -152 29 -52 2 -111 -1 -130 -5z m178 -137 c27 -5 67 -36 98 -76 29 -37 44 -153 33 -262 -14 -135 -69 -188 -195 -188 -90 -1 -133 27 -170 110 -20 45 -24 68 -24 157 0 88 4 113 24 157 26 59 50 85 92 98 35 10 101 12 142 4z"/>
 <path d="M11115 4841 c-94 -27 -153 -73 -189 -150 -20 -44 -21 -62 -21 -341 l0 -295 74 -3 c53 -2 77 1 82 10 5 7 9 131 9 276 0 283 1 292 54 342 37 34 136 40 183 11 67 -42 67 -46 73 -356 l5 -280 80 0 80 0 3 265 c3 245 1 270 -18 332 -25 79 -77 138 -148 170 -52 23 -213 34 -267 19z"/>
 <path d="M15255 4841 c-98 -27 -125 -53 -125 -118 0 -77 9 -83 77 -48 65 33 164 45 211 26 27 -11 62 -57 62 -81 0 -32 -47 -73 -128 -112 -108 -51 -146 -78 -180 -131 -22 -36 -27 -53 -27 -112 1 -105 29 -151 124 -200 48 -26 58 -27 154 -23 84 4 109 8 140 27 36 22 37 24 37 82 0 67 -13 80 -52 56 -13 -8 -49 -22 -82 -32 -49 -13 -64 -14 -90 -4 -49 19 -66 39 -66 75 0 25 8 39 37 63 21 17 41 31 45 31 16 0 144 64 162 82 11 10 23 18 27 18 4 0 20 21 35 48 24 40 28 58 28 117 -1 58 -5 77 -26 110 -34 54 -75 90 -123 110 -45 19 -193 29 -240 16z"/>
 <path d="M6053 4834 c-10 -4 -13 -93 -13 -395 l0 -390 78 3 77 3 3 153 3 152 144 0 144 0 3 -152 3 -153 78 -3 77 -3 0 390 c0 345 -2 390 -16 395 -28 11 -120 6 -132 -6 -8 -8 -12 -60 -12 -170 l0 -158 -145 0 -145 0 -2 168 -3 167 -65 2 c-36 1 -71 -1 -77 -3z"/>
 <path d="M6754 4825 c-8 -19 8 -73 71 -250 25 -71 62 -177 81 -235 20 -58 42 -119 50 -137 8 -17 14 -36 14 -43 0 -6 10 -34 21 -61 l21 -49 98 0 98 0 16 34 c9 19 16 39 16 44 0 6 5 23 11 39 13 30 68 186 124 348 19 55 48 138 65 185 16 47 30 97 30 112 l0 28 -78 0 c-87 0 -88 0 -112 -85 -7 -22 -17 -52 -23 -68 l-12 -27 -145 2 -145 3 -18 60 c-32 108 -33 110 -110 113 -54 2 -68 0 -73 -13z m453 -302 c-2 -5 -25 -74 -52 -155 -27 -81 -52 -145 -56 -142 -4 2 -11 19 -14 37 -4 17 -11 37 -14 42 -4 6 -13 30 -20 55 -6 25 -16 54 -21 65 -11 27 -30 86 -30 96 0 5 48 9 106 9 58 0 103 -3 101 -7z"/>
 <path d="M7531 4819 c-20 -19 -23 -29 -18 -68 5 -38 35 -93 170 -306 l164 -260 -151 -3 c-128 -2 -153 -5 -163 -19 -16 -20 -17 -67 -3 -94 10 -18 24 -19 250 -19 226 0 240 1 250 19 19 37 5 135 -24 164 -7 7 -21 26 -30 42 -9 17 -25 44 -36 60 -11 17 -27 45 -37 63 -9 17 -20 32 -25 32 -4 0 -8 5 -8 10 0 12 -52 94 -62 98 -5 2 -8 8 -8 13 0 6 -20 40 -44 77 l-45 67 167 5 166 5 10 33 c5 20 5 44 0 65 l-10 32 -245 3 c-239 2 -245 2 -268 -19z"/>
 <path d="M8457 4822 c-16 -17 -17 -54 -15 -393 l3 -374 74 -3 c53 -2 77 1 82 10 5 7 9 154 9 326 l0 312 130 0 129 0 7 36 c3 19 2 50 -3 67 l-9 32 -195 3 c-180 2 -197 1 -212 -16z"/>
 <path d="M11727 4822 c-15 -17 -17 -57 -17 -376 0 -227 4 -364 10 -377 10 -18 23 -19 229 -19 241 0 231 -3 231 65 0 66 2 65 -156 65 l-144 0 0 90 0 90 116 0 c129 0 143 6 144 63 0 63 -9 67 -140 67 l-120 0 0 105 0 105 134 0 c74 0 141 3 150 6 20 8 23 103 4 122 -9 9 -71 12 -218 12 -188 0 -208 -2 -223 -18z"/>
 <path d="M12530 4808 c1 -18 7 -49 14 -68 7 -19 27 -78 45 -130 18 -52 36 -104 41 -115 5 -11 23 -63 40 -115 17 -52 35 -104 40 -115 5 -11 23 -64 42 -117 l33 -98 101 0 102 0 10 28 c20 52 75 207 88 247 7 22 34 99 59 170 96 274 108 312 102 329 -6 14 -19 16 -84 14 l-78 -3 -30 -87 -30 -88 -147 0 -146 0 -7 33 c-4 17 -11 37 -15 42 -4 6 -11 26 -15 45 -11 54 -20 60 -96 60 l-69 0 0 -32z m407 -428 c-28 -83 -55 -149 -60 -147 -6 2 -16 25 -24 53 -8 27 -18 58 -23 69 -4 11 -19 55 -33 98 l-25 77 107 0 108 0 -50 -150z"/>
 <path d="M13357 4833 c-4 -3 -7 -174 -7 -379 0 -325 2 -375 16 -388 12 -12 38 -16 112 -16 88 0 100 2 122 23 18 17 51 96 114 271 49 135 92 243 96 239 7 -9 26 -57 96 -248 25 -66 51 -134 59 -152 8 -17 15 -36 15 -42 0 -15 30 -63 50 -78 9 -8 51 -12 112 -13 87 0 98 2 108 20 7 12 9 146 8 392 l-3 373 -64 3 c-45 2 -67 -1 -72 -10 -5 -7 -9 -155 -9 -328 l0 -315 -39 110 c-22 61 -44 126 -51 145 -6 19 -16 44 -21 55 -9 21 -30 81 -55 155 -8 25 -19 52 -24 61 -5 9 -14 36 -20 59 -16 61 -29 70 -98 70 -69 0 -84 -12 -102 -80 -7 -25 -15 -49 -19 -55 -5 -5 -14 -32 -21 -60 -8 -27 -20 -61 -27 -75 -7 -14 -13 -31 -13 -38 0 -7 -4 -20 -9 -30 -6 -9 -24 -60 -41 -112 -17 -52 -35 -104 -40 -115 -5 -11 -13 -33 -18 -50 -8 -21 -11 62 -11 286 -1 279 -3 318 -17 323 -21 8 -119 8 -127 -1z"/>
 <path d="M14360 4808 c1 -18 7 -49 14 -68 7 -19 27 -78 45 -130 18 -52 36 -104 41 -115 5 -11 23 -63 40 -115 17 -52 35 -104 40 -115 5 -11 23 -64 42 -117 l33 -98 101 0 102 0 10 28 c20 52 75 207 88 247 7 22 34 99 59 170 96 274 108 312 102 329 -6 14 -19 16 -84 14 l-78 -3 -30 -87 -30 -88 -147 0 -146 0 -7 33 c-4 17 -11 37 -15 42 -4 6 -11 26 -15 45 -11 54 -20 60 -96 60 l-69 0 0 -32z m407 -428 c-28 -83 -55 -149 -60 -147 -6 2 -16 25 -24 53 -8 27 -18 58 -23 69 -4 11 -19 55 -33 98 l-25 77 107 0 108 0 -50 -150z"/>
 <path d="M380 4399 c1 -96 61 -232 143 -324 57 -65 174 -151 218 -160 16 -4 29 -11 29 -17 0 -6 -15 -31 -34 -57 -62 -86 -226 -388 -226 -418 0 -4 -6 -20 -14 -35 -8 -14 -19 -43 -26 -65 -6 -21 -15 -47 -20 -58 -27 -59 -85 -307 -99 -420 -31 -251 -35 -335 -22 -488 18 -208 50 -398 87 -519 54 -180 198 -516 226 -526 4 -2 8 -8 8 -13 0 -7 91 -157 112 -184 5 -5 22 -28 38 -50 139 -184 323 -368 485 -484 39 -27 75 -54 80 -58 67 -55 442 -253 480 -253 4 0 21 -6 38 -14 109 -50 398 -118 576 -136 177 -17 541 -10 541 11 0 4 -26 22 -57 40 -69 39 -285 181 -303 199 -3 3 -50 39 -105 81 -90 69 -106 77 -159 83 -62 8 -237 50 -271 66 -11 5 -37 14 -58 20 -22 7 -51 18 -65 26 -15 8 -31 14 -36 14 -9 0 -176 82 -210 103 -129 79 -173 109 -245 165 -101 79 -248 222 -320 312 -28 36 -56 70 -61 77 -66 81 -230 379 -252 458 -6 22 -15 45 -19 50 -4 6 -12 30 -18 55 -7 25 -16 54 -21 65 -8 18 -17 56 -50 220 -5 23 -14 105 -20 184 -11 145 -2 381 20 489 27 132 77 321 90 337 4 6 13 28 20 50 29 92 169 352 218 403 6 7 12 17 12 21 0 4 8 17 18 28 9 11 28 35 42 53 91 121 110 136 213 171 50 17 101 35 112 40 83 38 351 61 476 40 168 -28 169 -25 19 64 -43 26 -134 58 -222 80 -78 19 -330 17 -508 -4 -147 -18 -357 -9 -432 17 -80 29 -158 65 -158 74 0 5 -5 8 -12 8 -17 0 -115 76 -190 149 l-68 64 0 -34z"/>
 <path d="M11480 3680 c-95 -10 -262 -40 -275 -50 -5 -4 -26 -11 -45 -15 -57 -12 -230 -93 -230 -107 0 -5 -5 -8 -11 -8 -30 0 -166 -130 -234 -225 -90 -126 -153 -305 -174 -497 -7 -60 -11 -365 -11 -803 l0 -705 183 0 c422 0 543 51 620 259 19 53 20 83 26 631 l6 575 25 69 c33 92 98 165 177 197 49 20 75 24 164 24 92 0 111 -3 153 -24 90 -47 155 -148 176 -275 6 -36 10 -344 10 -758 l0 -698 178 0 c329 0 444 29 546 135 45 47 85 141 97 231 7 53 9 266 6 620 -4 521 -9 626 -37 689 -5 11 -14 40 -21 65 -37 145 -149 313 -285 426 -231 192 -627 284 -1044 244z"/>
 <path d="M14280 3680 c-314 -34 -556 -137 -713 -305 -73 -78 -187 -270 -187 -316 0 -8 -4 -19 -9 -25 -17 -18 -51 -192 -61 -309 -5 -66 -10 -420 -10 -787 l0 -668 183 0 c339 1 440 23 539 122 39 39 61 70 69 100 7 24 17 49 23 57 7 9 13 202 16 590 5 517 7 582 23 631 41 124 92 188 187 232 37 18 65 22 155 22 95 1 117 -2 159 -22 87 -42 144 -121 176 -247 10 -38 14 -229 17 -767 l4 -718 182 0 c100 0 215 5 256 10 221 29 331 130 375 344 13 65 16 156 16 550 0 520 -10 657 -57 811 -98 316 -318 533 -643 633 -180 56 -498 84 -700 62z"/>
 <path d="M7038 3675 c-2 -3 -40 -9 -84 -15 -79 -11 -222 -49 -281 -76 -17 -8 -34 -14 -37 -14 -9 0 -168 -92 -182 -105 -6 -5 -37 -32 -69 -60 -32 -27 -85 -86 -117 -129 -55 -74 -128 -210 -128 -239 0 -7 -4 -17 -9 -23 -8 -8 -17 -40 -53 -194 -7 -30 -12 -429 -15 -1203 l-4 -1157 128 0 c158 1 305 14 378 35 128 38 216 117 255 232 23 65 24 82 28 421 l4 352 81 -83 c118 -119 170 -151 303 -188 62 -16 108 -21 214 -21 311 0 569 100 766 296 33 34 76 84 95 111 18 28 37 52 40 55 3 3 12 20 20 38 8 17 17 32 21 32 3 0 12 17 19 38 6 20 15 42 19 47 30 44 85 253 99 379 43 378 -28 708 -211 981 -53 79 -198 220 -286 279 -226 150 -471 216 -805 216 -101 0 -186 -2 -189 -5z m379 -634 c34 -10 77 -29 95 -42 43 -30 101 -93 119 -127 8 -15 16 -29 20 -32 13 -12 49 -132 60 -200 17 -110 6 -354 -21 -455 -64 -240 -208 -351 -431 -332 -187 16 -323 154 -381 385 -17 70 -21 115 -21 232 1 221 46 376 137 471 95 101 277 144 423 100z"/>
 <path d="M9585 3644 c-86 -20 -182 -47 -190 -53 -5 -4 -26 -14 -45 -21 -19 -8 -60 -31 -90 -52 -148 -101 -235 -229 -292 -423 l-22 -80 -4 -1277 -3 -1278 168 0 c185 1 285 11 365 36 133 43 234 162 269 314 9 41 14 302 18 1030 l6 975 23 45 c23 44 67 89 87 90 6 0 24 7 40 16 23 13 69 18 199 22 l168 5 -4 191 c-4 185 -5 193 -31 244 -50 96 -126 153 -267 198 -41 13 -94 18 -215 20 -88 2 -169 1 -180 -2z"/>
 </g>

</svg>